# This file uses centimeters as units for non-parametric coordinates.

mtllib brokenflip9.mtl
g brokenflip9:default1
v 0.007178 4.311881 3.721780
v 0.431269 4.311881 3.721780
v 0.431269 4.309536 3.711697
v 0.007178 4.309537 3.711697
v 0.007178 4.320509 3.719758
v 0.431269 4.320509 3.719758
v 0.007178 2.673981 -3.321193
v 0.431269 2.673981 -3.321193
v 0.007178 -1.851495 -0.814775
v 0.431269 -1.851495 -0.814775
vt 0.197571 0.172998
vt 0.802429 0.172998
vt 0.802203 0.173024
vt 0.197797 0.173024
vt 0.197616 0.172906
vt 0.802384 0.172906
vt 0.355322 0.190526
vt 0.644678 0.190526
vt 0.299183 0.238953
vt 0.700817 0.238953
vn 1.000000 0.000000 0.000000
vn 1.000000 0.000000 0.000000
vn 1.000000 0.000000 0.000000
vn -1.000000 0.000000 -0.000000
vn -1.000000 0.000000 0.000000
vn -1.000000 0.000000 -0.000000
vn -1.000000 0.000000 -0.000000
vn -1.000000 0.000000 -0.000000
vn -1.000000 0.000000 0.000000
vn 1.000000 0.000000 0.000000
vn 1.000000 0.000000 0.000000
vn 1.000000 0.000000 0.000000
s off
g brokenflip9:initialShadingGroup brokenflip9:initialShadingGroup1 brokenflip9:initialShadingGroup2 brokenflip9:initialShadingGroup3 brokenflip9:initialShadingGroup4 brokenflip9:pCube13 brokenflip9:polySurface2 brokenflip9:polySurface3 brokenflip9:polySurface4 brokenflip9:polySurface5 brokenflip9:polySurface1
usemtl blinn1SG
f 10/10/1 8/8/2 3/3/3
f 4/4/4 7/7/5 9/9/6
f 5/5/7 4/4/8 1/1/9
f 3/3/10 6/6/11 2/2/12
