# This file uses centimeters as units for non-parametric coordinates.

mtllib brokenflip16.mtl
g brokenflip17:default1
v 0.007178 2.867674 -1.289864
v 0.431269 2.867674 -1.289864
v 0.431269 2.867674 2.842629
v 0.007178 2.867674 2.842629
v 0.007178 -1.725625 -1.289864
v 0.431269 -1.725625 -1.289864
v 0.007178 0.947518 3.292665
v 0.431269 0.947518 3.292665
vt 0.375000 0.000000
vt 0.625000 0.000000
vt 0.625000 1.000000
vt 0.375000 1.000000
vt 0.625000 0.907439
vt 0.717561 0.000000
vt 0.375000 0.907439
vt 0.282439 0.000000
vt 0.375000 0.049153
vt 0.625000 0.049153
vt 0.272359 0.020548
vt 0.727641 0.020548
vn 0.000000 1.000000 0.000000
vn 0.000000 1.000000 0.000000
vn 0.000000 1.000000 0.000000
vn 0.000000 1.000000 0.000000
vn -1.000000 0.000000 0.000000
vn -1.000000 0.000000 0.000000
vn -1.000000 0.000000 0.000000
vn -1.000000 0.000000 0.000000
vn 0.000000 0.000000 -1.000000
vn 0.000000 0.000000 -1.000000
vn 0.000000 0.000000 -1.000000
vn 0.000000 0.000000 -1.000000
vn 1.000000 -0.000000 0.000000
vn 1.000000 0.000000 0.000000
vn 1.000000 0.000000 0.000000
vn 1.000000 0.000000 0.000000
s off
g brokenflip17:initialShadingGroup brokenflip17:initialShadingGroup1 brokenflip17:initialShadingGroup2 brokenflip17:pCube13 brokenflip17:polySurface2 brokenflip17:polySurface3 brokenflip17:polySurface1
usemtl blinn1SG
f 2/3/1 1/4/2 4/7/3 3/5/4
f 5/9/5 7/11/6 4/8/7 1/1/8
f 1/1/9 2/2/10 6/10/11 5/9/12
f 8/12/13 6/10/14 2/2/15 3/6/16
