# This file uses centimeters as units for non-parametric coordinates.

mtllib brokenflip3.mtl
g brokenflip3:default1
v 0.007178 6.342082 -1.309419
v 0.007178 3.636262 1.480957
v 0.431269 6.342082 -1.309419
v 0.431269 3.636262 1.480957
v 0.431269 -1.206704 1.480957
v 0.007178 -1.206704 1.480957
v 0.007178 -0.586620 -1.309419
v 0.431269 -0.586620 -1.309419
vt 0.187500 0.026812
vt 0.375000 0.694233
vt 0.125000 0.055767
vt 0.812500 0.026812
vt 0.625000 0.694233
vt 0.875000 0.055767
vt 0.625000 0.642408
vt 0.875000 0.107592
vt 0.375000 0.642408
vt 0.125000 0.107592
vt 0.187500 0.100957
vt 0.812500 0.100957
vn -1.000000 0.000000 0.000000
vn -1.000000 0.000000 0.000000
vn -1.000000 0.000000 0.000000
vn -1.000000 0.000000 0.000000
vn 0.000000 0.000000 1.000000
vn 0.000000 0.000000 1.000000
vn 0.000000 0.000000 1.000000
vn 0.000000 0.000000 1.000000
vn 1.000000 0.000000 0.000000
vn 1.000000 0.000000 0.000000
vn 1.000000 0.000000 0.000000
vn 1.000000 0.000000 0.000000
s off
g brokenflip3:initialShadingGroup brokenflip3:initialShadingGroup1 brokenflip3:initialShadingGroup2 brokenflip3:pCube13 brokenflip3:polySurface2 brokenflip3:polySurface3 brokenflip3:polySurface1
usemtl blinn1SG
f 2/3/1 1/1/2 7/11/3 6/10/4
f 5/7/5 4/5/6 2/2/7 6/9/8
f 3/4/9 4/6/10 5/8/11 8/12/12
