# This file uses centimeters as units for non-parametric coordinates.

mtllib brokenflip15.mtl
g brokenflip16:default1
v 0.007178 -0.627423 -1.341964
v 0.431269 -0.627423 -1.341964
v 0.007178 -3.426346 1.448413
v 0.431269 -3.426346 1.448413
v 0.431269 -4.153119 0.022820
v 0.007178 4.206427 1.448413
v 0.007178 2.578709 -1.341964
v 0.431269 2.578709 -1.341964
v 0.431269 4.206427 1.448413
v 0.007178 -4.144754 0.039228
vt 0.375000 0.083462
vt 0.625000 0.083462
vt 0.312500 0.113414
vt 0.687500 0.113414
vt 0.655569 0.121191
vt 0.312500 0.031735
vt 0.375000 0.049153
vt 0.625000 0.049153
vt 0.687500 0.031735
vt 0.344064 0.121101
vn 1.000000 0.000000 0.000000
vn 1.000000 0.000000 0.000000
vn 1.000000 0.000000 0.000000
vn 1.000000 0.000000 0.000000
vn 0.000000 0.000000 -1.000000
vn 0.000000 0.000000 -1.000000
vn 0.000000 0.000000 -1.000000
vn 0.000000 0.000000 -1.000000
vn -1.000000 0.000000 0.000000
vn -1.000000 0.000000 0.000000
vn -1.000000 0.000000 -0.000000
vn -1.000000 0.000000 0.000000
vn -1.000000 0.000000 0.000000
vn -1.000000 0.000000 0.000000
vn -1.000000 0.000000 -0.000000
vn 1.000000 0.000000 0.000000
vn 1.000000 0.000000 0.000000
vn 1.000000 0.000000 0.000000
s off
g brokenflip16:initialShadingGroup brokenflip16:initialShadingGroup1 brokenflip16:initialShadingGroup2 brokenflip16:initialShadingGroup3 brokenflip16:initialShadingGroup4 brokenflip16:pCube13 brokenflip16:polySurface2 brokenflip16:polySurface3 brokenflip16:polySurface4 brokenflip16:polySurface5 brokenflip16:polySurface1
usemtl blinn1SG
f 9/9/1 5/5/2 2/2/3 8/8/4
f 8/8/5 2/2/6 1/1/7 7/7/8
f 1/1/9 10/10/10 6/6/11 7/7/12
f 10/10/13 3/3/14 6/6/15
f 4/4/16 5/5/17 9/9/18
