# This file uses centimeters as units for non-parametric coordinates.

mtllib brokenflip5.mtl
g brokenflip5:default1
v 0.007178 -2.722749 1.230172
v 0.431269 -2.722749 1.230172
v 0.007178 4.472919 -0.456314
v 0.431269 4.472919 -0.456314
v 0.007178 -2.722749 -5.751288
v 0.431269 -2.722749 -5.751288
v 0.431269 4.470574 -0.466397
v 0.007178 4.470575 -0.466397
v 0.007178 4.481547 -0.458335
v 0.431269 4.481547 -0.458335
vt 0.159796 0.250000
vt 0.375000 0.465204
vt 0.625000 0.465204
vt 0.840204 0.250000
vt 0.197571 0.172998
vt 0.802429 0.172998
vt 0.316170 0.250000
vt 0.375000 0.308830
vt 0.625000 0.308830
vt 0.683830 0.250000
vt 0.802203 0.173024
vt 0.197797 0.173024
vt 0.197616 0.172906
vt 0.802384 0.172906
vn -1.000000 0.000000 0.000000
vn -1.000000 0.000000 0.000000
vn -1.000000 0.000000 0.000000
vn -1.000000 0.000000 0.000000
vn 1.000000 0.000000 0.000000
vn 1.000000 0.000000 0.000000
vn 1.000000 0.000000 0.000000
vn 1.000000 -0.000000 0.000000
vn 0.000000 -1.000000 0.000000
vn 0.000000 -1.000000 0.000000
vn 0.000000 -1.000000 0.000000
vn 0.000000 -1.000000 0.000000
vn -1.000000 0.000000 -0.000000
vn -1.000000 0.000000 -0.000000
vn -1.000000 0.000000 0.000000
vn 1.000000 0.000000 0.000000
vn 1.000000 0.000000 0.000000
vn 1.000000 0.000000 0.000000
s off
g brokenflip5:initialShadingGroup brokenflip5:initialShadingGroup1 brokenflip5:initialShadingGroup2 brokenflip5:initialShadingGroup3 brokenflip5:pCube13 brokenflip5:polySurface2 brokenflip5:polySurface3 brokenflip5:polySurface4 brokenflip5:polySurface1
usemtl blinn1SG
f 8/12/1 5/7/2 1/1/3 3/5/4
f 6/10/5 7/11/6 4/6/7 2/4/8
f 1/2/9 5/8/10 6/9/11 2/3/12
f 9/13/13 8/12/14 3/5/15
f 7/11/16 10/14/17 4/6/18
