# This file uses centimeters as units for non-parametric coordinates.

mtllib brokenflip6.mtl
g brokenflip6:default1
v 0.007178 -1.532069 0.942117
v 0.431269 -1.532069 0.942117
v 0.431269 -1.534414 0.932034
v 0.007178 -1.534413 0.932034
v 0.007178 -1.523441 0.940095
v 0.431269 -1.523441 0.940095
v 0.007178 -2.100995 -1.504268
v 0.431269 -2.100995 -1.504269
v 0.007178 6.018805 -0.827619
v 0.431269 6.018805 -0.827619
vt 0.197571 0.172998
vt 0.802429 0.172998
vt 0.802203 0.173024
vt 0.197797 0.173024
vt 0.197616 0.172906
vt 0.802384 0.172906
vt 0.252366 0.179087
vt 0.747634 0.179087
vt 0.237210 0.092196
vt 0.762790 0.092196
vn 1.000000 0.000000 0.000000
vn 1.000000 0.000000 0.000000
vn 1.000000 0.000000 0.000000
vn 1.000000 0.000000 0.000000
vn -1.000000 0.000000 -0.000000
vn -1.000000 0.000000 -0.000000
vn -1.000000 0.000000 0.000000
vn 1.000000 0.000000 0.000000
vn 1.000000 0.000000 0.000000
vn 1.000000 0.000000 0.000000
vn -1.000000 0.000000 0.000000
vn -1.000000 0.000000 -0.000000
vn -1.000000 0.000000 0.000000
vn -1.000000 0.000000 -0.000000
s off
g brokenflip6:initialShadingGroup brokenflip6:initialShadingGroup1 brokenflip6:initialShadingGroup2 brokenflip6:pCube13 brokenflip6:polySurface2 brokenflip6:polySurface3 brokenflip6:polySurface1
usemtl blinn1SG
f 10/10/1 6/6/2 3/3/3 8/8/4
f 5/5/5 4/4/6 1/1/7
f 3/3/8 6/6/9 2/2/10
f 5/5/11 9/9/12 7/7/13 4/4/14
