# This file uses centimeters as units for non-parametric coordinates.

mtllib brokenflip1.mtl
g brokenflip1:default1
v 0.007178 -2.795992 1.433694
v 0.431269 -2.795992 1.433694
v 0.431269 5.153168 1.433694
v 0.007178 5.153168 1.433694
v 0.007178 -2.795992 -0.119831
v 0.431269 -2.795992 -0.119831
v 0.007178 4.399677 -1.806315
v 0.431269 4.399677 -1.806315
v 0.431269 4.397332 -1.816398
v 0.007178 4.397332 -1.816399
v 0.007178 4.408304 -1.808338
v 0.431269 4.408304 -1.808338
vt 0.625000 0.500000
vt 0.375000 0.500000
vt 0.875000 0.250000
vt 0.125000 0.250000
vt 0.625000 0.585065
vt 0.875000 0.164935
vt 0.375000 0.585065
vt 0.125000 0.164935
vt 0.159796 0.250000
vt 0.375000 0.465204
vt 0.625000 0.465204
vt 0.840204 0.250000
vt 0.197571 0.172998
vt 0.802429 0.172998
vt 0.802203 0.173024
vt 0.197797 0.173024
vt 0.197616 0.172906
vt 0.802384 0.172906
vn 0.000000 -1.000000 0.000000
vn 0.000000 -1.000000 0.000000
vn 0.000000 -1.000000 0.000000
vn 0.000000 -1.000000 0.000000
vn 0.000000 0.000000 1.000000
vn 0.000000 0.000000 1.000000
vn 0.000000 0.000000 1.000000
vn 0.000000 0.000000 1.000000
vn -1.000000 0.000000 0.000000
vn -1.000000 0.000000 0.000000
vn -1.000000 0.000000 0.000000
vn -1.000000 0.000000 0.000000
vn 1.000000 0.000000 0.000000
vn 1.000000 0.000000 0.000000
vn 1.000000 0.000000 0.000000
vn 1.000000 0.000000 0.000000
vn -1.000000 0.000000 0.000000
vn -1.000000 0.000000 0.000000
vn -1.000000 0.000000 0.000000
vn 1.000000 0.000000 0.000000
vn 1.000000 0.000000 0.000000
vn 1.000000 0.000000 0.000000
s off
g brokenflip1:initialShadingGroup brokenflip1:initialShadingGroup1 brokenflip1:pCube13 brokenflip1:polySurface2 brokenflip1:polySurface1
usemtl blinn1SG
f 2/1/1 1/2/2 5/10/3 6/11/4
f 3/5/5 4/7/6 1/2/7 2/1/8
f 7/13/9 5/9/10 1/4/11 4/8/12
f 6/12/13 8/14/14 3/6/15 2/3/16
f 11/17/17 10/16/18 7/13/19
f 9/15/20 12/18/21 8/14/22
