# This file uses centimeters as units for non-parametric coordinates.

mtllib brokenflipslab.mtl
g default
v -0.008963 -2.025632 2.007706
v -0.008963 2.025632 2.007706
v -0.008963 -2.025632 -2.025632
v -0.008963 2.025632 -2.025632
vt 0.000000 0.000000
vt 1.000000 0.000000
vt 0.000000 0.995575
vt 1.000000 0.995575
vn -1.000000 0.000000 0.000000
vn -1.000000 0.000000 0.000000
vn -1.000000 0.000000 0.000000
vn -1.000000 0.000000 0.000000
s off
g pPlane1
usemtl initialShadingGroup
f 1/1/1 2/2/2 4/4/3 3/3/4
