# This file uses centimeters as units for non-parametric coordinates.

mtllib brokenflip12.mtl
g brokenflip12:default1
v 0.431269 2.920164 -1.309998
v 0.007178 2.920164 -1.309998
v 0.007178 -2.920359 -1.309998
v 0.431269 -2.920359 -1.309998
v 0.431269 2.920164 0.032118
v 0.007178 2.920164 0.032118
v 0.007178 -2.920359 1.400990
v 0.431269 -2.920357 1.400990
vt 0.625000 0.937500
vt 0.687500 0.000000
vt 0.375000 0.937500
vt 0.312500 0.000000
vt 0.312500 0.062500
vt 0.687500 0.062500
vt 0.625000 0.907439
vt 0.717561 0.000000
vt 0.375000 0.907439
vt 0.282439 0.000000
vt 0.251778 0.062500
vt 0.748222 0.062500
vn -1.000000 0.000000 0.000000
vn -1.000000 0.000000 0.000000
vn -1.000000 0.000000 0.000000
vn -1.000000 0.000000 0.000000
vn 0.000000 1.000000 0.000000
vn 0.000000 1.000000 0.000000
vn 0.000000 1.000000 0.000000
vn 0.000000 1.000000 0.000000
vn 1.000000 0.000000 0.000000
vn 1.000000 0.000000 0.000000
vn 1.000000 0.000000 0.000000
vn 1.000000 0.000000 0.000000
s off
g brokenflip12:initialShadingGroup brokenflip12:initialShadingGroup1 brokenflip12:initialShadingGroup2 brokenflip12:pCube13 brokenflip12:polySurface2 brokenflip12:polySurface3 brokenflip12:polySurface1
usemtl blinn1SG
f 3/5/1 7/11/2 6/10/3 2/4/4
f 6/9/5 5/7/6 1/1/7 2/3/8
f 4/6/9 1/2/10 5/8/11 8/12/12
