# This file uses centimeters as units for non-parametric coordinates.

mtllib Diamond.mtl
g default
v -0.008614 1.374601 0.414643
v -1.109417 -0.008398 0.414643
v -0.008614 -1.391398 0.414643
v 1.092190 -0.008398 0.414643
v -0.008614 -0.015853 3.676202
v -0.008614 1.374601 0.414730
v 1.092190 -0.008398 0.414730
v -0.008614 -1.391398 0.414730
v -1.109417 -0.008398 0.414730
v -0.008614 -0.008398 -2.926957
vt 0.500000 0.000000
vt 0.750000 0.250000
vt 0.500000 0.500000
vt 0.250000 0.250000
vt 0.250000 0.500000
vt 0.375000 0.500000
vt 0.500000 1.000000
vt 0.500000 0.500000
vt 0.625000 0.500000
vt 0.750000 0.500000
vt 0.500000 0.000000
vt 0.750000 0.250000
vt 0.500000 0.500000
vt 0.250000 0.250000
vt 0.250000 0.500000
vt 0.375000 0.500000
vt 0.500000 1.000000
vt 0.500000 0.500000
vt 0.625000 0.500000
vt 0.750000 0.500000
vn 0.000000 0.000000 -1.000000
vn 0.000000 0.000000 -1.000000
vn 0.000000 0.000000 -1.000000
vn 0.000000 0.000000 -1.000000
vn -0.756213 0.601911 0.256604
vn -0.756213 0.601911 0.256604
vn -0.756213 0.601911 0.256604
vn -0.756744 -0.602334 0.254031
vn -0.756744 -0.602334 0.254031
vn -0.756744 -0.602334 0.254031
vn 0.756744 -0.602334 0.254031
vn 0.756744 -0.602334 0.254031
vn 0.756744 -0.602334 0.254031
vn 0.756213 0.601911 0.256604
vn 0.756213 0.601911 0.256604
vn 0.756213 0.601911 0.256604
vn 0.000000 0.000000 1.000000
vn 0.000000 0.000000 1.000000
vn 0.000000 0.000000 1.000000
vn 0.000000 0.000000 1.000000
vn 0.757649 0.603056 -0.249583
vn 0.757649 0.603056 -0.249583
vn 0.757649 0.603056 -0.249583
vn 0.757651 -0.603054 -0.249582
vn 0.757651 -0.603054 -0.249582
vn 0.757651 -0.603054 -0.249582
vn -0.757651 -0.603054 -0.249582
vn -0.757651 -0.603054 -0.249582
vn -0.757651 -0.603054 -0.249582
vn -0.757649 0.603056 -0.249583
vn -0.757649 0.603056 -0.249583
vn -0.757649 0.603056 -0.249583
s off
g Diamond:polySurface39
usemtl Diamond:initialShadingGroup
f 1/1/1 4/2/2 3/3/3 2/4/4
f 1/5/5 2/6/6 5/7/7
f 2/6/8 3/8/9 5/7/10
f 3/8/11 4/9/12 5/7/13
f 4/9/14 1/10/15 5/7/16
f 6/11/17 9/12/18 8/13/19 7/14/20
f 6/15/21 7/16/22 10/17/23
f 7/16/24 8/18/25 10/17/26
f 8/18/27 9/19/28 10/17/29
f 9/19/30 6/20/31 10/17/32
